<svg width="12" height="12" viewBox="0 0 12 12" fill="none" xmlns="http://www.w3.org/2000/svg">
<g id="linkedin" clip-path="url(#clip0_101_111)">
<g id="Group">
<path id="Vector" d="M0.719437 3.94183H3.04798V11.1006H0.719437V3.94183ZM9.39061 4.02579C9.36588 4.01798 9.34245 4.00952 9.31642 4.00236C9.28517 3.99528 9.2537 3.98921 9.22206 3.98414C9.08456 3.95602 8.94458 3.94185 8.80425 3.94183C7.44669 3.94183 6.58569 4.92909 6.30194 5.31045V3.94183H3.9734V11.1006H6.30194V7.1958C6.30194 7.1958 8.06169 4.74491 8.80425 6.54501V11.1006H11.1321V6.26972C11.1312 5.75568 10.9597 5.2565 10.6445 4.85041C10.3293 4.44432 9.88833 4.15429 9.39061 4.02579Z" fill="#FAFBFF"/>
<path id="Vector_2" d="M1.85837 2.96564C2.48736 2.96564 2.99726 2.45575 2.99726 1.82676C2.99726 1.19776 2.48736 0.687866 1.85837 0.687866C1.22938 0.687866 0.719482 1.19776 0.719482 1.82676C0.719482 2.45575 1.22938 2.96564 1.85837 2.96564Z" fill="#FAFBFF"/>
</g>
</g>
<defs>
<clipPath id="clip0_101_111">
<rect width="10.4127" height="10.4127" fill="white" transform="translate(0.719528 0.687866)"/>
</clipPath>
</defs>
</svg>
