<svg width="12" height="12" viewBox="0 0 12 12" fill="none" xmlns="http://www.w3.org/2000/svg">
<g id="twitter (1)" clip-path="url(#clip0_101_117)">
<path id="Vector" d="M11.3757 2.99105C10.984 3.16188 10.5697 3.27542 10.1457 3.32816C10.5926 3.06304 10.9267 2.64324 11.0848 2.14827C10.6663 2.39644 10.2085 2.57121 9.73112 2.665C9.43843 2.35248 9.0585 2.1352 8.64071 2.04141C8.22293 1.94761 7.78658 1.98163 7.38838 2.13904C6.99018 2.29646 6.64852 2.56999 6.4078 2.9241C6.16707 3.27822 6.03841 3.69654 6.03852 4.12473C6.03852 4.29394 6.05284 4.45664 6.08798 4.61152C5.23875 4.56989 4.40787 4.34948 3.64965 3.96471C2.89144 3.57994 2.22298 3.03948 1.68797 2.37865C1.41386 2.84843 1.32912 3.40502 1.451 3.93509C1.57288 4.46516 1.89221 4.92884 2.34397 5.23173C2.00605 5.22267 1.67526 5.13249 1.37949 4.96881V4.99224C1.38006 5.48517 1.55043 5.96286 1.86193 6.34489C2.17344 6.72692 2.60705 6.98996 3.08978 7.08975C2.90715 7.13788 2.71894 7.16151 2.53009 7.16003C2.39446 7.16244 2.25896 7.15023 2.12595 7.12359C2.26388 7.54727 2.52976 7.91778 2.88698 8.18409C3.24421 8.45041 3.67521 8.59943 4.12063 8.61065C3.36502 9.2016 2.43311 9.52217 1.47386 9.52111C1.29879 9.52111 1.13089 9.5133 0.962982 9.49183C1.9391 10.1208 3.07655 10.4536 4.23778 10.4498C8.16597 10.4498 10.3136 7.19583 10.3136 4.37529C10.3136 4.28092 10.3103 4.18981 10.3058 4.09935C10.7268 3.79802 11.0894 3.42245 11.3757 2.99105Z" fill="#FAFBFF"/>
</g>
<defs>
<clipPath id="clip0_101_117">
<rect width="10.4127" height="10.4127" fill="white" transform="translate(0.962906 0.687866)"/>
</clipPath>
</defs>
</svg>
